<svg width="213" height="54" viewBox="0 0 213 54" fill="none" xmlns="http://www.w3.org/2000/svg">
<rect width="213" height="54" fill="black"/>
<path d="M13.0781 46.8223C15.5833 46.8223 18.0208 45.6374 20.3906 43.2676C22.7773 40.8978 24.8594 38.0964 26.6367 34.8633C28.4141 31.6302 29.8105 28.3464 30.8262 25.0117C31.8587 21.6771 32.375 18.7572 32.375 16.252C32.375 14.0176 31.8757 12.3587 30.877 11.2754C29.8783 10.1921 28.6003 9.65039 27.043 9.65039C25.1979 9.65039 23.4714 10.1413 21.8633 11.123C20.2552 12.1048 18.8164 13.3743 17.5469 14.9316C16.2943 16.472 15.2533 18.1393 14.4238 19.9336C13.6113 21.7109 13.1035 23.2005 12.9004 24.4023C13.6621 23.0651 14.2038 22.3965 14.5254 22.3965C14.9316 22.3965 15.1348 22.5488 15.1348 22.8535C15.1348 22.9043 15.1178 22.972 15.084 23.0566C14.2207 24.2923 13.3913 25.6465 12.5957 27.1191C12.5957 27.4746 12.6211 27.8301 12.6719 28.1855C12.9596 32.1465 14.2715 34.7702 16.6074 36.0566C16.6921 36.1413 16.7344 36.2174 16.7344 36.2852C16.7344 36.3867 16.6413 36.4714 16.4551 36.5391C14.8132 35.6927 13.6452 34.457 12.9512 32.832C12.2741 31.207 11.8763 29.8613 11.7578 28.7949C9.89583 32.4512 8.96484 36.319 8.96484 40.3984C8.96484 40.974 8.99023 41.5495 9.04102 42.125C9.66732 45.2565 11.013 46.8223 13.0781 46.8223ZM13.1289 47.3047C11.724 47.3047 10.5645 46.8477 9.65039 45.9336C8.75326 45.0026 8.20312 43.75 8 42.1758C7.91536 41.3802 7.87305 40.6185 7.87305 39.8906C7.87305 35.7435 9.12565 31.3424 11.6309 26.6875C11.6816 25.2826 11.9525 23.7845 12.4434 22.1934C12.9342 20.6022 13.6283 19.0365 14.5254 17.4961C15.4395 15.9557 16.5228 14.5592 17.7754 13.3066C19.028 12.0371 20.4329 11.0215 21.9902 10.2598C23.5645 9.49805 25.2487 9.11719 27.043 9.11719C28.5326 9.11719 29.8021 9.57422 30.8516 10.4883C31.901 11.3854 32.5527 12.7311 32.8066 14.5254C32.8743 15.2702 32.9082 16.0404 32.9082 16.8359C32.9082 19.1888 32.4935 21.9479 31.6641 25.1133C30.8516 28.2617 29.4805 31.6217 27.5508 35.1934C26.332 37.4616 24.9694 39.5013 23.4629 41.3125C21.9564 43.1237 20.3314 44.5794 18.5879 45.6797C16.8444 46.763 15.0247 47.3047 13.1289 47.3047ZM32.9336 41.1855C32.7812 41.1855 32.7051 41.1178 32.7051 40.9824C32.6882 40.9824 32.6628 40.9655 32.6289 40.9316L32.6797 40.8301C32.6966 40.4408 32.8574 40.0599 33.1621 39.6875C33.2975 39.2474 33.3652 38.8327 33.3652 38.4434C33.3652 37.9186 33.2637 37.3008 33.0605 36.5898C32.8066 35.9128 32.6797 35.1003 32.6797 34.1523C32.6797 32.9505 33.3652 31.7741 34.7363 30.623C34.8379 30.5384 34.9395 30.4961 35.041 30.4961C35.3288 30.4961 35.4727 30.623 35.4727 30.877C35.4727 30.9616 35.4388 31.0378 35.3711 31.1055C34.8971 31.4948 34.5163 31.9095 34.2285 32.3496C33.9408 32.7897 33.7969 33.3314 33.7969 33.9746C33.7969 34.7363 33.873 35.4134 34.0254 36.0059C34.1608 36.5306 34.2285 37.0638 34.2285 37.6055C34.2285 38.0794 34.1947 38.4603 34.127 38.748C35.0241 38.0033 36.5645 37.1315 38.748 36.1328L42.1504 34.584C44.5879 33.5684 46.7292 32.5612 48.5742 31.5625L48.6504 31.5117C48.8535 31.5117 48.9551 31.6217 48.9551 31.8418L48.8281 31.9941C46.763 33.1113 44.554 34.1693 42.2012 35.168C41.1178 35.6419 40.0345 36.1328 38.9512 36.6406C36.4629 37.7578 34.7702 38.765 33.873 39.6621C33.7376 40.0853 33.5007 40.5508 33.1621 41.0586C33.1113 41.1432 33.0352 41.1855 32.9336 41.1855ZM49.0059 32.3242C49.446 32.3073 49.8691 32.2142 50.2754 32.0449C50.6816 31.8757 50.8848 31.6133 50.8848 31.2578C50.8848 31.0885 50.7324 31.0039 50.4277 31.0039C49.8014 31.0039 49.3275 31.444 49.0059 32.3242ZM49.7168 29.9629C49.5645 29.9629 49.4883 29.8698 49.4883 29.6836C49.4883 29.6328 49.556 29.5482 49.6914 29.4297C49.8268 29.3112 49.9707 29.1927 50.123 29.0742C50.2923 28.9557 50.4447 28.8457 50.5801 28.7441C50.7324 28.6426 50.8424 28.5918 50.9102 28.5918C51.1133 28.5918 51.2148 28.7018 51.2148 28.9219V28.9727C51.2148 29.0065 51.1979 29.0488 51.1641 29.0996C51.1471 29.1504 51.1048 29.2012 51.0371 29.252C50.2077 29.7259 49.7676 29.9629 49.7168 29.9629ZM50.5293 36.0566C48.7012 36.0566 47.7448 35.2865 47.6602 33.7461C47.6602 32.8997 47.8971 32.1549 48.3711 31.5117C48.8451 30.8685 49.5306 30.5215 50.4277 30.4707C50.6816 30.4707 50.9102 30.5384 51.1133 30.6738C51.3164 30.8092 51.418 31.0039 51.418 31.2578C51.418 31.8333 51.1302 32.2396 50.5547 32.4766C49.9792 32.7135 49.4121 32.832 48.8535 32.832C48.8027 33.069 48.7773 33.3483 48.7773 33.6699C48.7773 34.2285 48.9297 34.6771 49.2344 35.0156C49.556 35.3542 49.9876 35.5234 50.5293 35.5234C51.8158 35.5234 53.1784 35.3372 54.6172 34.9648C56.056 34.5924 57.5202 34.1016 59.0098 33.4922C60.4993 32.8828 61.9889 32.2311 63.4785 31.5371C63.5632 31.5371 63.6393 31.554 63.707 31.5879C63.7917 31.6217 63.834 31.6979 63.834 31.8164C63.834 31.8503 63.8171 31.8926 63.7832 31.9434C63.7663 31.9941 63.7409 32.0195 63.707 32.0195C63.6732 32.0534 63.2246 32.2734 62.3613 32.6797C61.498 33.0859 60.3978 33.5514 59.0605 34.0762C57.7233 34.6009 56.293 35.0664 54.7695 35.4727C53.263 35.862 51.8496 36.0566 50.5293 36.0566ZM64.8242 29.709C64.4349 29.709 64.2402 29.4043 64.2402 28.7949C64.2402 27.9824 64.5111 27.5169 65.0527 27.3984C65.3066 27.3984 65.5267 27.5085 65.7129 27.7285C65.8991 27.9316 65.9922 28.1517 65.9922 28.3887C65.9922 28.6934 65.8652 28.9896 65.6113 29.2773C65.3574 29.5651 65.0951 29.709 64.8242 29.709ZM65.7383 36.3105C63.6224 36.3105 62.5475 35.4811 62.5137 33.8223C62.5137 32.7728 62.8522 31.8079 63.5293 30.9277C63.6309 30.7415 63.8171 30.6484 64.0879 30.6484C64.2741 30.6484 64.4349 30.6908 64.5703 30.7754C64.7057 30.8431 64.7734 30.9447 64.7734 31.0801L64.748 31.207C64.1895 32.0534 63.9102 32.9505 63.9102 33.8984C63.9102 34.3724 64.054 34.7956 64.3418 35.168C64.6465 35.5404 65.1035 35.752 65.7129 35.8027C66.7454 35.8027 67.9727 35.5911 69.3945 35.168C70.8333 34.7279 72.2383 34.2285 73.6094 33.6699C74.9805 33.1113 76.1315 32.612 77.0625 32.1719L78.5098 31.5117C78.7129 31.5117 78.8145 31.5964 78.8145 31.7656C78.8145 31.8164 78.7975 31.8672 78.7637 31.918C78.7467 31.9688 78.7214 31.9941 78.6875 31.9941C78.6367 32.028 78.1458 32.265 77.2148 32.7051C76.3008 33.1283 75.1667 33.6191 73.8125 34.1777C70.3086 35.5996 67.6172 36.3105 65.7383 36.3105ZM96.7148 31.5371C96.8333 31.5371 96.9095 31.554 96.9434 31.5879C96.9941 31.6217 97.028 31.6556 97.0449 31.6895C97.0618 31.7233 97.0703 31.7741 97.0703 31.8418L96.9434 31.9941C92.2207 34.6178 88.3359 35.9297 85.2891 35.9297C84.2057 35.9297 83.3594 35.7266 82.75 35.3203C82.1406 34.8971 81.7852 34.3047 81.6836 33.543C81.582 33.6445 81.2943 33.9154 80.8203 34.3555C79.8216 35.2695 79.0091 35.7266 78.3828 35.7266C77.4688 35.7266 76.9863 35.1934 76.9355 34.127C76.9355 33.5853 77.1387 32.9759 77.5449 32.2988C77.9512 31.6048 78.4674 31.0039 79.0938 30.4961C79.7201 29.9883 80.3717 29.7344 81.0488 29.7344C81.6074 29.7344 81.9967 29.8952 82.2168 30.2168C82.4538 30.5384 82.5723 30.9108 82.5723 31.334C82.5723 31.4525 82.5384 31.5202 82.4707 31.5371C82.403 31.554 82.3353 31.5625 82.2676 31.5625C82.2337 31.5625 82.1914 31.554 82.1406 31.5371C82.1068 31.5202 82.0729 31.4948 82.0391 31.4609C82.0052 31.4271 81.9883 31.3763 81.9883 31.3086C81.9883 30.8516 81.709 30.6146 81.1504 30.5977C80.7103 30.5977 80.2363 30.8262 79.7285 31.2832C79.2376 31.7402 78.8229 32.265 78.4844 32.8574C78.1458 33.4499 77.9766 33.9492 77.9766 34.3555C77.9766 34.8633 78.1289 35.1426 78.4336 35.1934C78.806 35.1934 79.2799 34.9648 79.8555 34.5078C80.431 34.0508 81.0573 33.4583 81.7344 32.7305C81.819 32.5781 81.9629 32.502 82.166 32.502C82.5384 32.502 82.7246 32.6628 82.7246 32.9844C82.7246 34.5755 83.5879 35.3711 85.3145 35.3711C88.2259 35.3711 92.0091 34.11 96.6641 31.5879L96.7148 31.5371ZM95.6992 41.1855C95.5469 41.1855 95.4707 41.1178 95.4707 40.9824C95.4538 40.9824 95.4284 40.9655 95.3945 40.9316L95.4453 40.8301C95.4622 40.4408 95.623 40.0599 95.9277 39.6875C96.0632 39.2474 96.1309 38.8327 96.1309 38.4434C96.1309 37.9186 96.0293 37.3008 95.8262 36.5898C95.5723 35.9128 95.4453 35.1003 95.4453 34.1523C95.4453 32.9505 96.1309 31.7741 97.502 30.623C97.6035 30.5384 97.7051 30.4961 97.8066 30.4961C98.0944 30.4961 98.2383 30.623 98.2383 30.877C98.2383 30.9616 98.2044 31.0378 98.1367 31.1055C97.6628 31.4948 97.2819 31.9095 96.9941 32.3496C96.7064 32.7897 96.5625 33.3314 96.5625 33.9746C96.5625 34.7363 96.6387 35.4134 96.791 36.0059C96.9264 36.5306 96.9941 37.0638 96.9941 37.6055C96.9941 38.0794 96.9603 38.4603 96.8926 38.748C97.7897 38.0033 99.3301 37.1315 101.514 36.1328L104.916 34.584C107.354 33.5684 109.495 32.5612 111.34 31.5625L111.416 31.5117C111.619 31.5117 111.721 31.6217 111.721 31.8418L111.594 31.9941C109.529 33.1113 107.32 34.1693 104.967 35.168C103.883 35.6419 102.8 36.1328 101.717 36.6406C99.2285 37.7578 97.5358 38.765 96.6387 39.6621C96.5033 40.0853 96.2663 40.5508 95.9277 41.0586C95.877 41.1432 95.8008 41.1855 95.6992 41.1855ZM129.139 46.2383C127.074 46.2044 125.288 45.4258 123.781 43.9023C122.275 42.3789 121.521 40.2292 121.521 37.4531C121.521 33.5599 122.461 29.5312 124.34 25.3672C126.236 21.1862 128.749 17.5892 131.881 14.5762C134.945 11.6647 138.245 10.209 141.783 10.209C142.782 10.209 143.535 10.4121 144.043 10.8184C144.568 11.2077 144.923 11.6816 145.109 12.2402C145.296 12.7988 145.389 13.332 145.389 13.8398L145.338 14.6777C145.219 14.9486 145.067 15.084 144.881 15.084C144.627 15.084 144.492 14.9486 144.475 14.6777C144.475 14.5085 144.517 14.373 144.602 14.2715C144.618 14.1868 144.652 14.0684 144.703 13.916C144.754 13.7637 144.788 13.5605 144.805 13.3066C144.805 12.528 144.483 11.8763 143.84 11.3516C143.434 10.9453 142.748 10.7422 141.783 10.7422C139.803 10.7422 137.882 11.3516 136.02 12.5703C134.158 13.7891 132.423 15.3887 130.814 17.3691C129.223 19.3496 127.827 21.5247 126.625 23.8945C125.44 26.2474 124.501 28.6172 123.807 31.0039C123.13 33.3737 122.791 35.5234 122.791 37.4531C122.791 39.9076 123.367 41.8965 124.518 43.4199C125.686 44.9434 127.226 45.7051 129.139 45.7051C131.373 45.7051 133.438 44.9772 135.334 43.5215C138.686 40.8639 141.411 37.5293 143.51 33.5176L144.678 31.2324C144.729 31.1816 144.796 31.1562 144.881 31.1562C145.067 31.1562 145.16 31.2493 145.16 31.4355C143.586 34.4147 142.096 36.8776 140.691 38.8242C139.303 40.7539 137.619 42.472 135.639 43.9785C133.675 45.485 131.508 46.2383 129.139 46.2383ZM151.152 32.5781C151.22 32.3581 151.254 32.1549 151.254 31.9688C151.254 31.6471 151.161 31.4863 150.975 31.4863C150.907 31.4863 150.865 31.6217 150.848 31.8926C150.848 32.1973 150.949 32.4258 151.152 32.5781ZM149.121 34.9648C148.681 34.9648 148.3 34.8379 147.979 34.584C147.64 34.3301 147.471 33.9408 147.471 33.416C147.471 32.8574 147.657 32.2904 148.029 31.7148C148.402 31.1393 148.808 30.7754 149.248 30.623C149.637 30.623 149.832 30.8008 149.832 31.1562C149.832 31.2578 149.798 31.3509 149.73 31.4355C148.833 32.1634 148.385 32.8828 148.385 33.5938C148.385 33.7969 148.444 33.9915 148.562 34.1777C148.681 34.347 148.867 34.4316 149.121 34.4316C149.544 34.4316 149.883 34.3216 150.137 34.1016C150.391 33.8646 150.636 33.5599 150.873 33.1875C150.382 32.9505 150.137 32.5189 150.137 31.8926C150.137 31.334 150.424 31.0293 151 30.9785C151.525 30.9785 151.787 31.3001 151.787 31.9434C151.787 32.2311 151.719 32.5273 151.584 32.832C152.075 33.069 152.65 33.1875 153.311 33.1875C155.9 33.1198 158.363 32.8913 160.699 32.502C163.035 32.1126 164.626 31.7826 165.473 31.5117C165.693 31.5117 165.803 31.6048 165.803 31.791V31.8164C165.803 31.9688 165.126 32.1888 163.771 32.4766C162.434 32.7643 160.818 33.0352 158.922 33.2891C157.026 33.543 155.156 33.6868 153.311 33.7207C152.617 33.7207 151.965 33.6107 151.355 33.3906C150.831 34.4401 150.086 34.9648 149.121 34.9648ZM181.494 21C181.697 21 181.867 20.9915 182.002 20.9746H183.043L184.186 17.166C183.61 18.2324 182.713 19.5104 181.494 21ZM175.604 52.4336C175.35 52.4336 175.223 52.2897 175.223 52.002C175.223 49.2598 176.111 44.7233 177.889 38.3926C179.666 32.0618 181.316 26.4505 182.84 21.5586C182.247 21.5586 181.621 21.584 180.961 21.6348C178.439 24.5462 175.798 27.2799 173.039 29.8359C169.315 33.2891 166.878 35.9635 165.727 37.8594C165.727 38.7396 165.371 39.7975 164.66 41.0332C164.609 41.1178 164.533 41.1602 164.432 41.1602C164.364 41.1602 164.305 41.1432 164.254 41.1094C164.203 41.0755 164.178 41.0078 164.178 40.9062C164.178 40.043 164.406 39.1966 164.863 38.3672C164.863 38.0625 164.838 37.7663 164.787 37.4785C164.719 37.1908 164.643 36.903 164.559 36.6152C164.457 36.2767 164.364 35.9128 164.279 35.5234C164.195 35.1341 164.152 34.6686 164.152 34.127C164.152 33.3483 164.381 32.6712 164.838 32.0957C165.667 31.0293 166.234 30.4961 166.539 30.4961C166.59 30.4961 166.632 30.5046 166.666 30.5215C166.717 30.5215 166.768 30.5384 166.818 30.5723C166.903 30.623 166.945 30.7246 166.945 30.877C166.945 30.9108 166.937 30.9531 166.92 31.0039C166.903 31.0378 166.878 31.0716 166.844 31.1055C166.353 31.4779 165.964 31.8926 165.676 32.3496C165.405 32.7897 165.27 33.3229 165.27 33.9492C165.27 34.8294 165.354 35.5911 165.523 36.2344C165.591 36.6068 165.633 36.8607 165.65 36.9961C166.768 35.2526 169.087 32.7559 172.607 29.5059L172.684 29.4297C175.358 26.9753 177.863 24.3939 180.199 21.6855C177.677 21.8887 175.248 22.6081 172.912 23.8438C172.878 23.8776 172.827 23.903 172.76 23.9199C172.709 23.9199 172.667 23.9199 172.633 23.9199C172.328 23.9199 172.167 23.7507 172.15 23.4121C172.15 23.209 172.294 23.0397 172.582 22.9043C175.223 21.7702 177.956 21.1439 180.783 21.0254C182.476 19.0111 183.847 16.8867 184.896 14.6523C184.981 14.4323 185.083 14.2884 185.201 14.2207C185.337 14.1361 185.489 14.0938 185.658 14.0938C186.081 14.1276 186.293 14.3646 186.293 14.8047C186.293 14.9401 186.268 15.0924 186.217 15.2617C185.794 16.4128 185.117 18.3255 184.186 21C187.063 21.1354 190.22 21.5332 193.656 22.1934L193.834 22.3711C193.834 22.4727 193.8 22.5573 193.732 22.625C193.682 22.6927 193.622 22.7266 193.555 22.7266C190.118 22.0664 186.919 21.6771 183.957 21.5586C178.642 36.7253 175.984 46.8815 175.984 52.0273C175.984 52.2812 175.857 52.4167 175.604 52.4336ZM204.219 31.5371C204.337 31.5371 204.413 31.554 204.447 31.5879C204.498 31.6217 204.532 31.6556 204.549 31.6895C204.566 31.7233 204.574 31.7741 204.574 31.8418L204.447 31.9941C199.725 34.6178 195.84 35.9297 192.793 35.9297C191.71 35.9297 190.863 35.7266 190.254 35.3203C189.645 34.8971 189.289 34.3047 189.188 33.543C189.086 33.6445 188.798 33.9154 188.324 34.3555C187.326 35.2695 186.513 35.7266 185.887 35.7266C184.973 35.7266 184.49 35.1934 184.439 34.127C184.439 33.5853 184.643 32.9759 185.049 32.2988C185.455 31.6048 185.971 31.0039 186.598 30.4961C187.224 29.9883 187.876 29.7344 188.553 29.7344C189.111 29.7344 189.501 29.8952 189.721 30.2168C189.958 30.5384 190.076 30.9108 190.076 31.334C190.076 31.4525 190.042 31.5202 189.975 31.5371C189.907 31.554 189.839 31.5625 189.771 31.5625C189.738 31.5625 189.695 31.554 189.645 31.5371C189.611 31.5202 189.577 31.4948 189.543 31.4609C189.509 31.4271 189.492 31.3763 189.492 31.3086C189.492 30.8516 189.213 30.6146 188.654 30.5977C188.214 30.5977 187.74 30.8262 187.232 31.2832C186.742 31.7402 186.327 32.265 185.988 32.8574C185.65 33.4499 185.48 33.9492 185.48 34.3555C185.48 34.8633 185.633 35.1426 185.938 35.1934C186.31 35.1934 186.784 34.9648 187.359 34.5078C187.935 34.0508 188.561 33.4583 189.238 32.7305C189.323 32.5781 189.467 32.502 189.67 32.502C190.042 32.502 190.229 32.6628 190.229 32.9844C190.229 34.5755 191.092 35.3711 192.818 35.3711C195.73 35.3711 199.513 34.11 204.168 31.5879L204.219 31.5371Z" fill="white"/>
</svg>
