<svg width="200" height="54" viewBox="0 0 200 54" fill="none" xmlns="http://www.w3.org/2000/svg">
<path d="M6.07812 46.8223C8.58333 46.8223 11.0208 45.6374 13.3906 43.2676C15.7773 40.8978 17.8594 38.0964 19.6367 34.8633C21.4141 31.6302 22.8105 28.3464 23.8262 25.0117C24.8587 21.6771 25.375 18.7572 25.375 16.252C25.375 14.0176 24.8757 12.3587 23.877 11.2754C22.8783 10.1921 21.6003 9.65039 20.043 9.65039C18.1979 9.65039 16.4714 10.1413 14.8633 11.123C13.2552 12.1048 11.8164 13.3743 10.5469 14.9316C9.29427 16.472 8.25326 18.1393 7.42383 19.9336C6.61133 21.7109 6.10352 23.2005 5.90039 24.4023C6.66211 23.0651 7.20378 22.3965 7.52539 22.3965C7.93164 22.3965 8.13477 22.5488 8.13477 22.8535C8.13477 22.9043 8.11784 22.972 8.08398 23.0566C7.2207 24.2923 6.39128 25.6465 5.5957 27.1191C5.5957 27.4746 5.62109 27.8301 5.67188 28.1855C5.95964 32.1465 7.27148 34.7702 9.60742 36.0566C9.69206 36.1413 9.73438 36.2174 9.73438 36.2852C9.73438 36.3867 9.64128 36.4714 9.45508 36.5391C7.81315 35.6927 6.64518 34.457 5.95117 32.832C5.27409 31.207 4.8763 29.8613 4.75781 28.7949C2.89583 32.4512 1.96484 36.319 1.96484 40.3984C1.96484 40.974 1.99023 41.5495 2.04102 42.125C2.66732 45.2565 4.01302 46.8223 6.07812 46.8223ZM6.12891 47.3047C4.72396 47.3047 3.56445 46.8477 2.65039 45.9336C1.75326 45.0026 1.20312 43.75 1 42.1758C0.915365 41.3802 0.873047 40.6185 0.873047 39.8906C0.873047 35.7435 2.12565 31.3424 4.63086 26.6875C4.68164 25.2826 4.95247 23.7845 5.44336 22.1934C5.93424 20.6022 6.62826 19.0365 7.52539 17.4961C8.43945 15.9557 9.52279 14.5592 10.7754 13.3066C12.028 12.0371 13.4329 11.0215 14.9902 10.2598C16.5645 9.49805 18.2487 9.11719 20.043 9.11719C21.5326 9.11719 22.8021 9.57422 23.8516 10.4883C24.901 11.3854 25.5527 12.7311 25.8066 14.5254C25.8743 15.2702 25.9082 16.0404 25.9082 16.8359C25.9082 19.1888 25.4935 21.9479 24.6641 25.1133C23.8516 28.2617 22.4805 31.6217 20.5508 35.1934C19.332 37.4616 17.9694 39.5013 16.4629 41.3125C14.9564 43.1237 13.3314 44.5794 11.5879 45.6797C9.8444 46.763 8.02474 47.3047 6.12891 47.3047ZM25.9336 41.1855C25.7812 41.1855 25.7051 41.1178 25.7051 40.9824C25.6882 40.9824 25.6628 40.9655 25.6289 40.9316L25.6797 40.8301C25.6966 40.4408 25.8574 40.0599 26.1621 39.6875C26.2975 39.2474 26.3652 38.8327 26.3652 38.4434C26.3652 37.9186 26.2637 37.3008 26.0605 36.5898C25.8066 35.9128 25.6797 35.1003 25.6797 34.1523C25.6797 32.9505 26.3652 31.7741 27.7363 30.623C27.8379 30.5384 27.9395 30.4961 28.041 30.4961C28.3288 30.4961 28.4727 30.623 28.4727 30.877C28.4727 30.9616 28.4388 31.0378 28.3711 31.1055C27.8971 31.4948 27.5163 31.9095 27.2285 32.3496C26.9408 32.7897 26.7969 33.3314 26.7969 33.9746C26.7969 34.7363 26.873 35.4134 27.0254 36.0059C27.1608 36.5306 27.2285 37.0638 27.2285 37.6055C27.2285 38.0794 27.1947 38.4603 27.127 38.748C28.0241 38.0033 29.5645 37.1315 31.748 36.1328L35.1504 34.584C37.5879 33.5684 39.7292 32.5612 41.5742 31.5625L41.6504 31.5117C41.8535 31.5117 41.9551 31.6217 41.9551 31.8418L41.8281 31.9941C39.763 33.1113 37.554 34.1693 35.2012 35.168C34.1178 35.6419 33.0345 36.1328 31.9512 36.6406C29.4629 37.7578 27.7702 38.765 26.873 39.6621C26.7376 40.0853 26.5007 40.5508 26.1621 41.0586C26.1113 41.1432 26.0352 41.1855 25.9336 41.1855ZM42.0059 32.3242C42.446 32.3073 42.8691 32.2142 43.2754 32.0449C43.6816 31.8757 43.8848 31.6133 43.8848 31.2578C43.8848 31.0885 43.7324 31.0039 43.4277 31.0039C42.8014 31.0039 42.3275 31.444 42.0059 32.3242ZM42.7168 29.9629C42.5645 29.9629 42.4883 29.8698 42.4883 29.6836C42.4883 29.6328 42.556 29.5482 42.6914 29.4297C42.8268 29.3112 42.9707 29.1927 43.123 29.0742C43.2923 28.9557 43.4447 28.8457 43.5801 28.7441C43.7324 28.6426 43.8424 28.5918 43.9102 28.5918C44.1133 28.5918 44.2148 28.7018 44.2148 28.9219V28.9727C44.2148 29.0065 44.1979 29.0488 44.1641 29.0996C44.1471 29.1504 44.1048 29.2012 44.0371 29.252C43.2077 29.7259 42.7676 29.9629 42.7168 29.9629ZM43.5293 36.0566C41.7012 36.0566 40.7448 35.2865 40.6602 33.7461C40.6602 32.8997 40.8971 32.1549 41.3711 31.5117C41.8451 30.8685 42.5306 30.5215 43.4277 30.4707C43.6816 30.4707 43.9102 30.5384 44.1133 30.6738C44.3164 30.8092 44.418 31.0039 44.418 31.2578C44.418 31.8333 44.1302 32.2396 43.5547 32.4766C42.9792 32.7135 42.4121 32.832 41.8535 32.832C41.8027 33.069 41.7773 33.3483 41.7773 33.6699C41.7773 34.2285 41.9297 34.6771 42.2344 35.0156C42.556 35.3542 42.9876 35.5234 43.5293 35.5234C44.8158 35.5234 46.1784 35.3372 47.6172 34.9648C49.056 34.5924 50.5202 34.1016 52.0098 33.4922C53.4993 32.8828 54.9889 32.2311 56.4785 31.5371C56.5632 31.5371 56.6393 31.554 56.707 31.5879C56.7917 31.6217 56.834 31.6979 56.834 31.8164C56.834 31.8503 56.8171 31.8926 56.7832 31.9434C56.7663 31.9941 56.7409 32.0195 56.707 32.0195C56.6732 32.0534 56.2246 32.2734 55.3613 32.6797C54.498 33.0859 53.3978 33.5514 52.0605 34.0762C50.7233 34.6009 49.293 35.0664 47.7695 35.4727C46.263 35.862 44.8496 36.0566 43.5293 36.0566ZM57.8242 29.709C57.4349 29.709 57.2402 29.4043 57.2402 28.7949C57.2402 27.9824 57.5111 27.5169 58.0527 27.3984C58.3066 27.3984 58.5267 27.5085 58.7129 27.7285C58.8991 27.9316 58.9922 28.1517 58.9922 28.3887C58.9922 28.6934 58.8652 28.9896 58.6113 29.2773C58.3574 29.5651 58.0951 29.709 57.8242 29.709ZM58.7383 36.3105C56.6224 36.3105 55.5475 35.4811 55.5137 33.8223C55.5137 32.7728 55.8522 31.8079 56.5293 30.9277C56.6309 30.7415 56.8171 30.6484 57.0879 30.6484C57.2741 30.6484 57.4349 30.6908 57.5703 30.7754C57.7057 30.8431 57.7734 30.9447 57.7734 31.0801L57.748 31.207C57.1895 32.0534 56.9102 32.9505 56.9102 33.8984C56.9102 34.3724 57.054 34.7956 57.3418 35.168C57.6465 35.5404 58.1035 35.752 58.7129 35.8027C59.7454 35.8027 60.9727 35.5911 62.3945 35.168C63.8333 34.7279 65.2383 34.2285 66.6094 33.6699C67.9805 33.1113 69.1315 32.612 70.0625 32.1719L71.5098 31.5117C71.7129 31.5117 71.8145 31.5964 71.8145 31.7656C71.8145 31.8164 71.7975 31.8672 71.7637 31.918C71.7467 31.9688 71.7214 31.9941 71.6875 31.9941C71.6367 32.028 71.1458 32.265 70.2148 32.7051C69.3008 33.1283 68.1667 33.6191 66.8125 34.1777C63.3086 35.5996 60.6172 36.3105 58.7383 36.3105ZM89.7148 31.5371C89.8333 31.5371 89.9095 31.554 89.9434 31.5879C89.9941 31.6217 90.028 31.6556 90.0449 31.6895C90.0618 31.7233 90.0703 31.7741 90.0703 31.8418L89.9434 31.9941C85.2207 34.6178 81.3359 35.9297 78.2891 35.9297C77.2057 35.9297 76.3594 35.7266 75.75 35.3203C75.1406 34.8971 74.7852 34.3047 74.6836 33.543C74.582 33.6445 74.2943 33.9154 73.8203 34.3555C72.8216 35.2695 72.0091 35.7266 71.3828 35.7266C70.4688 35.7266 69.9863 35.1934 69.9355 34.127C69.9355 33.5853 70.1387 32.9759 70.5449 32.2988C70.9512 31.6048 71.4674 31.0039 72.0938 30.4961C72.7201 29.9883 73.3717 29.7344 74.0488 29.7344C74.6074 29.7344 74.9967 29.8952 75.2168 30.2168C75.4538 30.5384 75.5723 30.9108 75.5723 31.334C75.5723 31.4525 75.5384 31.5202 75.4707 31.5371C75.403 31.554 75.3353 31.5625 75.2676 31.5625C75.2337 31.5625 75.1914 31.554 75.1406 31.5371C75.1068 31.5202 75.0729 31.4948 75.0391 31.4609C75.0052 31.4271 74.9883 31.3763 74.9883 31.3086C74.9883 30.8516 74.709 30.6146 74.1504 30.5977C73.7103 30.5977 73.2363 30.8262 72.7285 31.2832C72.2376 31.7402 71.8229 32.265 71.4844 32.8574C71.1458 33.4499 70.9766 33.9492 70.9766 34.3555C70.9766 34.8633 71.1289 35.1426 71.4336 35.1934C71.806 35.1934 72.2799 34.9648 72.8555 34.5078C73.431 34.0508 74.0573 33.4583 74.7344 32.7305C74.819 32.5781 74.9629 32.502 75.166 32.502C75.5384 32.502 75.7246 32.6628 75.7246 32.9844C75.7246 34.5755 76.5879 35.3711 78.3145 35.3711C81.2259 35.3711 85.0091 34.11 89.6641 31.5879L89.7148 31.5371ZM88.6992 41.1855C88.5469 41.1855 88.4707 41.1178 88.4707 40.9824C88.4538 40.9824 88.4284 40.9655 88.3945 40.9316L88.4453 40.8301C88.4622 40.4408 88.623 40.0599 88.9277 39.6875C89.0632 39.2474 89.1309 38.8327 89.1309 38.4434C89.1309 37.9186 89.0293 37.3008 88.8262 36.5898C88.5723 35.9128 88.4453 35.1003 88.4453 34.1523C88.4453 32.9505 89.1309 31.7741 90.502 30.623C90.6035 30.5384 90.7051 30.4961 90.8066 30.4961C91.0944 30.4961 91.2383 30.623 91.2383 30.877C91.2383 30.9616 91.2044 31.0378 91.1367 31.1055C90.6628 31.4948 90.2819 31.9095 89.9941 32.3496C89.7064 32.7897 89.5625 33.3314 89.5625 33.9746C89.5625 34.7363 89.6387 35.4134 89.791 36.0059C89.9264 36.5306 89.9941 37.0638 89.9941 37.6055C89.9941 38.0794 89.9603 38.4603 89.8926 38.748C90.7897 38.0033 92.3301 37.1315 94.5137 36.1328L97.916 34.584C100.354 33.5684 102.495 32.5612 104.34 31.5625L104.416 31.5117C104.619 31.5117 104.721 31.6217 104.721 31.8418L104.594 31.9941C102.529 33.1113 100.32 34.1693 97.9668 35.168C96.8835 35.6419 95.8001 36.1328 94.7168 36.6406C92.2285 37.7578 90.5358 38.765 89.6387 39.6621C89.5033 40.0853 89.2663 40.5508 88.9277 41.0586C88.877 41.1432 88.8008 41.1855 88.6992 41.1855ZM122.139 46.2383C120.074 46.2044 118.288 45.4258 116.781 43.9023C115.275 42.3789 114.521 40.2292 114.521 37.4531C114.521 33.5599 115.461 29.5312 117.34 25.3672C119.236 21.1862 121.749 17.5892 124.881 14.5762C127.945 11.6647 131.245 10.209 134.783 10.209C135.782 10.209 136.535 10.4121 137.043 10.8184C137.568 11.2077 137.923 11.6816 138.109 12.2402C138.296 12.7988 138.389 13.332 138.389 13.8398L138.338 14.6777C138.219 14.9486 138.067 15.084 137.881 15.084C137.627 15.084 137.492 14.9486 137.475 14.6777C137.475 14.5085 137.517 14.373 137.602 14.2715C137.618 14.1868 137.652 14.0684 137.703 13.916C137.754 13.7637 137.788 13.5605 137.805 13.3066C137.805 12.528 137.483 11.8763 136.84 11.3516C136.434 10.9453 135.748 10.7422 134.783 10.7422C132.803 10.7422 130.882 11.3516 129.02 12.5703C127.158 13.7891 125.423 15.3887 123.814 17.3691C122.223 19.3496 120.827 21.5247 119.625 23.8945C118.44 26.2474 117.501 28.6172 116.807 31.0039C116.13 33.3737 115.791 35.5234 115.791 37.4531C115.791 39.9076 116.367 41.8965 117.518 43.4199C118.686 44.9434 120.226 45.7051 122.139 45.7051C124.373 45.7051 126.438 44.9772 128.334 43.5215C131.686 40.8639 134.411 37.5293 136.51 33.5176L137.678 31.2324C137.729 31.1816 137.796 31.1562 137.881 31.1562C138.067 31.1562 138.16 31.2493 138.16 31.4355C136.586 34.4147 135.096 36.8776 133.691 38.8242C132.303 40.7539 130.619 42.472 128.639 43.9785C126.675 45.485 124.508 46.2383 122.139 46.2383ZM144.152 32.5781C144.22 32.3581 144.254 32.1549 144.254 31.9688C144.254 31.6471 144.161 31.4863 143.975 31.4863C143.907 31.4863 143.865 31.6217 143.848 31.8926C143.848 32.1973 143.949 32.4258 144.152 32.5781ZM142.121 34.9648C141.681 34.9648 141.3 34.8379 140.979 34.584C140.64 34.3301 140.471 33.9408 140.471 33.416C140.471 32.8574 140.657 32.2904 141.029 31.7148C141.402 31.1393 141.808 30.7754 142.248 30.623C142.637 30.623 142.832 30.8008 142.832 31.1562C142.832 31.2578 142.798 31.3509 142.73 31.4355C141.833 32.1634 141.385 32.8828 141.385 33.5938C141.385 33.7969 141.444 33.9915 141.562 34.1777C141.681 34.347 141.867 34.4316 142.121 34.4316C142.544 34.4316 142.883 34.3216 143.137 34.1016C143.391 33.8646 143.636 33.5599 143.873 33.1875C143.382 32.9505 143.137 32.5189 143.137 31.8926C143.137 31.334 143.424 31.0293 144 30.9785C144.525 30.9785 144.787 31.3001 144.787 31.9434C144.787 32.2311 144.719 32.5273 144.584 32.832C145.075 33.069 145.65 33.1875 146.311 33.1875C148.9 33.1198 151.363 32.8913 153.699 32.502C156.035 32.1126 157.626 31.7826 158.473 31.5117C158.693 31.5117 158.803 31.6048 158.803 31.791V31.8164C158.803 31.9688 158.126 32.1888 156.771 32.4766C155.434 32.7643 153.818 33.0352 151.922 33.2891C150.026 33.543 148.156 33.6868 146.311 33.7207C145.617 33.7207 144.965 33.6107 144.355 33.3906C143.831 34.4401 143.086 34.9648 142.121 34.9648ZM174.494 21C174.697 21 174.867 20.9915 175.002 20.9746H176.043L177.186 17.166C176.61 18.2324 175.713 19.5104 174.494 21ZM168.604 52.4336C168.35 52.4336 168.223 52.2897 168.223 52.002C168.223 49.2598 169.111 44.7233 170.889 38.3926C172.666 32.0618 174.316 26.4505 175.84 21.5586C175.247 21.5586 174.621 21.584 173.961 21.6348C171.439 24.5462 168.798 27.2799 166.039 29.8359C162.315 33.2891 159.878 35.9635 158.727 37.8594C158.727 38.7396 158.371 39.7975 157.66 41.0332C157.609 41.1178 157.533 41.1602 157.432 41.1602C157.364 41.1602 157.305 41.1432 157.254 41.1094C157.203 41.0755 157.178 41.0078 157.178 40.9062C157.178 40.043 157.406 39.1966 157.863 38.3672C157.863 38.0625 157.838 37.7663 157.787 37.4785C157.719 37.1908 157.643 36.903 157.559 36.6152C157.457 36.2767 157.364 35.9128 157.279 35.5234C157.195 35.1341 157.152 34.6686 157.152 34.127C157.152 33.3483 157.381 32.6712 157.838 32.0957C158.667 31.0293 159.234 30.4961 159.539 30.4961C159.59 30.4961 159.632 30.5046 159.666 30.5215C159.717 30.5215 159.768 30.5384 159.818 30.5723C159.903 30.623 159.945 30.7246 159.945 30.877C159.945 30.9108 159.937 30.9531 159.92 31.0039C159.903 31.0378 159.878 31.0716 159.844 31.1055C159.353 31.4779 158.964 31.8926 158.676 32.3496C158.405 32.7897 158.27 33.3229 158.27 33.9492C158.27 34.8294 158.354 35.5911 158.523 36.2344C158.591 36.6068 158.633 36.8607 158.65 36.9961C159.768 35.2526 162.087 32.7559 165.607 29.5059L165.684 29.4297C168.358 26.9753 170.863 24.3939 173.199 21.6855C170.677 21.8887 168.248 22.6081 165.912 23.8438C165.878 23.8776 165.827 23.903 165.76 23.9199C165.709 23.9199 165.667 23.9199 165.633 23.9199C165.328 23.9199 165.167 23.7507 165.15 23.4121C165.15 23.209 165.294 23.0397 165.582 22.9043C168.223 21.7702 170.956 21.1439 173.783 21.0254C175.476 19.0111 176.847 16.8867 177.896 14.6523C177.981 14.4323 178.083 14.2884 178.201 14.2207C178.337 14.1361 178.489 14.0938 178.658 14.0938C179.081 14.1276 179.293 14.3646 179.293 14.8047C179.293 14.9401 179.268 15.0924 179.217 15.2617C178.794 16.4128 178.117 18.3255 177.186 21C180.063 21.1354 183.22 21.5332 186.656 22.1934L186.834 22.3711C186.834 22.4727 186.8 22.5573 186.732 22.625C186.682 22.6927 186.622 22.7266 186.555 22.7266C183.118 22.0664 179.919 21.6771 176.957 21.5586C171.642 36.7253 168.984 46.8815 168.984 52.0273C168.984 52.2812 168.857 52.4167 168.604 52.4336ZM197.219 31.5371C197.337 31.5371 197.413 31.554 197.447 31.5879C197.498 31.6217 197.532 31.6556 197.549 31.6895C197.566 31.7233 197.574 31.7741 197.574 31.8418L197.447 31.9941C192.725 34.6178 188.84 35.9297 185.793 35.9297C184.71 35.9297 183.863 35.7266 183.254 35.3203C182.645 34.8971 182.289 34.3047 182.188 33.543C182.086 33.6445 181.798 33.9154 181.324 34.3555C180.326 35.2695 179.513 35.7266 178.887 35.7266C177.973 35.7266 177.49 35.1934 177.439 34.127C177.439 33.5853 177.643 32.9759 178.049 32.2988C178.455 31.6048 178.971 31.0039 179.598 30.4961C180.224 29.9883 180.876 29.7344 181.553 29.7344C182.111 29.7344 182.501 29.8952 182.721 30.2168C182.958 30.5384 183.076 30.9108 183.076 31.334C183.076 31.4525 183.042 31.5202 182.975 31.5371C182.907 31.554 182.839 31.5625 182.771 31.5625C182.738 31.5625 182.695 31.554 182.645 31.5371C182.611 31.5202 182.577 31.4948 182.543 31.4609C182.509 31.4271 182.492 31.3763 182.492 31.3086C182.492 30.8516 182.213 30.6146 181.654 30.5977C181.214 30.5977 180.74 30.8262 180.232 31.2832C179.742 31.7402 179.327 32.265 178.988 32.8574C178.65 33.4499 178.48 33.9492 178.48 34.3555C178.48 34.8633 178.633 35.1426 178.938 35.1934C179.31 35.1934 179.784 34.9648 180.359 34.5078C180.935 34.0508 181.561 33.4583 182.238 32.7305C182.323 32.5781 182.467 32.502 182.67 32.502C183.042 32.502 183.229 32.6628 183.229 32.9844C183.229 34.5755 184.092 35.3711 185.818 35.3711C188.73 35.3711 192.513 34.11 197.168 31.5879L197.219 31.5371Z" fill="white"/>
</svg>
