<svg width="208" height="56" viewBox="0 0 208 56" fill="none" xmlns="http://www.w3.org/2000/svg">
<rect x="1" width="196" height="56" fill="#1E1E1E"/>
<path d="M6.07812 46.8223C8.5918 46.8223 11.0293 45.6289 13.416 43.2676C15.7773 40.9062 17.8594 38.0879 19.6367 34.8633C21.4141 31.6387 22.8105 28.3379 23.8516 25.0117C24.8672 21.6855 25.375 18.7656 25.375 16.252C25.375 14.0176 24.8672 12.3672 23.877 11.2754C22.8867 10.1836 21.5918 9.65039 20.043 9.65039C18.1895 9.65039 16.4629 10.1328 14.8633 11.123C13.2637 12.1133 11.8164 13.3574 10.5723 14.9062C9.30273 16.4551 8.26172 18.1309 7.44922 19.9082C6.61133 21.7109 6.10352 23.209 5.90039 24.4023C6.66211 23.0566 7.19531 22.3965 7.52539 22.3965C7.93164 22.3965 8.13477 22.5488 8.13477 22.8535C8.13477 22.9043 8.10938 22.9805 8.08398 23.0566C7.2207 24.3008 6.38281 25.6465 5.5957 27.1191C5.5957 27.4746 5.62109 27.8301 5.67188 28.1855C5.95117 32.1465 7.27148 34.7617 9.60742 36.0566C9.68359 36.1328 9.73438 36.209 9.73438 36.2852C9.73438 36.3867 9.63281 36.4629 9.45508 36.5391C7.80469 35.7012 6.66211 34.457 5.97656 32.832C5.29102 31.207 4.88477 29.8613 4.75781 28.7949C2.9043 32.4512 1.96484 36.3105 1.96484 40.3984C1.96484 40.9824 1.99023 41.541 2.04102 42.125C2.67578 45.248 4.02148 46.8223 6.07812 46.8223ZM6.12891 47.3047C4.73242 47.3047 3.56445 46.8477 2.67578 45.9082C1.76172 44.9941 1.20312 43.75 1 42.1758C0.923828 41.3887 0.873047 40.627 0.873047 39.8906C0.873047 35.752 2.11719 31.334 4.63086 26.6875C4.68164 25.291 4.96094 23.793 5.44336 22.1934C5.92578 20.5938 6.63672 19.0449 7.55078 17.4961C8.43945 15.9473 9.53125 14.5508 10.7754 13.2812C12.0195 12.0371 13.4414 11.0215 15.0156 10.2598C16.5645 9.49805 18.2402 9.11719 20.043 9.11719C21.541 9.11719 22.8105 9.57422 23.8516 10.4629C24.8926 11.377 25.5527 12.7227 25.8066 14.5254C25.8828 15.2617 25.9082 16.0488 25.9082 16.8359C25.9082 19.1973 25.502 21.9395 24.6895 25.0879C23.8516 28.2617 22.4805 31.6133 20.5508 35.1934C19.332 37.4531 17.9609 39.5098 16.4629 41.3125C14.9648 43.1152 13.3398 44.5625 11.5879 45.6543C9.83594 46.7461 8.0332 47.3047 6.12891 47.3047ZM25.9336 41.1855C25.7812 41.1855 25.7051 41.1094 25.7051 40.9824C25.6797 40.9824 25.6797 40.957 25.6289 40.9316L25.6797 40.8301C25.7051 40.4492 25.8574 40.0684 26.1621 39.6875C26.2891 39.2559 26.3652 38.8242 26.3652 38.4434C26.3652 37.9102 26.2637 37.3008 26.0605 36.5898C25.8066 35.9043 25.6797 35.0918 25.6797 34.1523C25.6797 32.959 26.3652 31.7656 27.7363 30.623C27.8379 30.5469 27.9395 30.4961 28.041 30.4961C28.3203 30.4961 28.4727 30.623 28.4727 30.877C28.4727 30.9531 28.4473 31.0293 28.3711 31.1055C27.8887 31.4863 27.5078 31.918 27.2285 32.3496C26.9492 32.7812 26.7969 33.3398 26.7969 33.9746C26.7969 34.7363 26.873 35.4219 27.0254 36.0059C27.1523 36.5391 27.2285 37.0723 27.2285 37.6055C27.2285 38.0879 27.2031 38.4688 27.127 38.748C28.0156 38.0117 29.5645 37.123 31.748 36.1328L35.1504 34.584C37.5879 33.5684 39.7207 32.5527 41.5742 31.5625L41.6504 31.5117C41.8535 31.5117 41.9551 31.6133 41.9551 31.8418L41.8281 31.9941C39.7715 33.1113 37.5625 34.1777 35.2012 35.168C34.1094 35.6504 33.043 36.1328 31.9512 36.6406C29.4629 37.7578 27.7617 38.7734 26.873 39.6621C26.7461 40.0938 26.4922 40.5508 26.1621 41.0586C26.1113 41.1348 26.0352 41.1855 25.9336 41.1855ZM42.0059 32.3242C42.4375 32.2988 42.8691 32.2227 43.2754 32.0449C43.6816 31.8672 43.8848 31.6133 43.8848 31.2578C43.8848 31.0801 43.7324 31.0039 43.4277 31.0039C42.8184 31.0039 42.3359 31.4355 42.0059 32.3242ZM42.7168 29.9629C42.5645 29.9629 42.4883 29.8613 42.4883 29.6836C42.4883 29.6328 42.5645 29.5312 42.6914 29.4297C42.8184 29.3027 42.9707 29.2012 43.123 29.0742C43.3008 28.9473 43.4531 28.8457 43.6055 28.7441C43.7578 28.6426 43.8594 28.5918 43.9102 28.5918C44.1133 28.5918 44.2148 28.6934 44.2148 28.9219V28.9727C44.2148 28.998 44.1895 29.0488 44.1641 29.0996C44.1387 29.1504 44.0879 29.2012 44.0371 29.252C43.1992 29.7344 42.7676 29.9629 42.7168 29.9629ZM43.5293 36.0566C41.7012 36.0566 40.7617 35.2949 40.6602 33.7461C40.6602 32.9082 40.8887 32.1719 41.3711 31.5117C41.8535 30.877 42.5391 30.5215 43.4277 30.4707C43.6816 30.4707 43.9102 30.5469 44.1133 30.6738C44.3164 30.8262 44.418 31.0039 44.418 31.2578C44.418 31.8418 44.1387 32.248 43.5547 32.4766C42.9707 32.7051 42.4121 32.832 41.8535 32.832C41.8027 33.0605 41.7773 33.3398 41.7773 33.6699C41.7773 34.2285 41.9297 34.6855 42.2598 35.0156C42.5645 35.3457 42.9961 35.5234 43.5293 35.5234C44.8242 35.5234 46.1953 35.3457 47.6172 34.9648C49.0645 34.6094 50.5371 34.1016 52.0098 33.4922C53.5078 32.8828 54.9805 32.248 56.4785 31.5371C56.5547 31.5371 56.6309 31.5625 56.707 31.5879C56.7832 31.6133 56.834 31.6895 56.834 31.8164C56.834 31.8418 56.834 31.8926 56.8086 31.9434C56.7832 31.9941 56.7324 32.0195 56.707 32.0195C56.6816 32.0449 56.2246 32.2734 55.3613 32.6797C54.498 33.0859 53.4062 33.543 52.0605 34.0762C50.7148 34.584 49.293 35.0664 47.7695 35.4473C46.2461 35.8535 44.8496 36.0566 43.5293 36.0566ZM57.8242 29.709C57.4434 29.709 57.2402 29.4043 57.2402 28.7949C57.2402 27.9824 57.5195 27.5254 58.0527 27.3984C58.3066 27.3984 58.5352 27.5 58.7129 27.7285C58.8906 27.9316 58.9922 28.1602 58.9922 28.3887C58.9922 28.6934 58.8652 28.998 58.6113 29.2773C58.3574 29.5566 58.1035 29.709 57.8242 29.709ZM58.7383 36.3105C56.6309 36.3105 55.5391 35.4727 55.5137 33.8223C55.5137 32.7812 55.8438 31.8164 56.5293 30.9277C56.6309 30.75 56.8086 30.6484 57.0879 30.6484C57.291 30.6484 57.4434 30.6992 57.5703 30.7754C57.6973 30.8516 57.7734 30.9531 57.7734 31.0801L57.748 31.207C57.1895 32.0703 56.9102 32.959 56.9102 33.8984C56.9102 34.3809 57.0625 34.8125 57.3418 35.168C57.6465 35.5488 58.1035 35.752 58.7129 35.8027C59.7539 35.8027 60.9727 35.5996 62.4199 35.168C63.8418 34.7363 65.2383 34.2285 66.6094 33.6699C67.9805 33.1113 69.123 32.6289 70.0625 32.1719L71.5098 31.5117C71.7129 31.5117 71.8145 31.5879 71.8145 31.7656C71.8145 31.8164 71.8145 31.8672 71.7891 31.918C71.7637 31.9688 71.7129 31.9941 71.6875 31.9941C71.6367 32.0449 71.1289 32.2734 70.2148 32.6797C69.3008 33.1113 68.1582 33.6191 66.8125 34.1777C63.3086 35.5996 60.6172 36.3105 58.7383 36.3105ZM89.7148 31.5371C89.8164 31.5371 89.8926 31.5625 89.9434 31.5879C89.9941 31.6133 90.0195 31.6387 90.0449 31.6895C90.0703 31.7148 90.0703 31.7656 90.0703 31.8418L89.9434 31.9941C85.2207 34.6094 81.3359 35.9297 78.2891 35.9297C77.2227 35.9297 76.3594 35.7266 75.75 35.2949C75.1406 34.8887 74.7852 34.3047 74.6836 33.543C74.582 33.6445 74.3027 33.8984 73.8203 34.3555C72.8301 35.2695 72.0176 35.7266 71.3828 35.7266C70.4688 35.7266 69.9863 35.1934 69.9355 34.127C69.9355 33.5684 70.1387 32.959 70.5449 32.2734C70.9512 31.5879 71.4844 31.0039 72.0938 30.4961C72.7285 29.9883 73.3633 29.7344 74.0488 29.7344C74.6074 29.7344 74.9883 29.8867 75.2168 30.2168C75.4453 30.5469 75.5723 30.9277 75.5723 31.334C75.5723 31.4609 75.5469 31.5117 75.4707 31.5371C75.3945 31.5625 75.3184 31.5625 75.2676 31.5625C75.2422 31.5625 75.1914 31.5625 75.166 31.5371C75.1152 31.5371 75.0898 31.5117 75.0391 31.4609C75.0137 31.4355 74.9883 31.3848 74.9883 31.3086C74.9883 30.8516 74.709 30.623 74.1504 30.5977C73.7188 30.5977 73.2363 30.8262 72.7285 31.2832C72.2461 31.7402 71.8145 32.2734 71.4844 32.8574C71.1543 33.4668 70.9766 33.9492 70.9766 34.3555C70.9766 34.8633 71.1289 35.1426 71.4336 35.1934C71.8145 35.1934 72.2715 34.9648 72.8555 34.5078C73.4141 34.0508 74.0488 33.4668 74.7344 32.7305C74.8105 32.5781 74.9629 32.502 75.166 32.502C75.5469 32.502 75.7246 32.6543 75.7246 32.9844C75.7246 34.584 76.5879 35.3711 78.3145 35.3711C81.209 35.3711 84.9922 34.1016 89.6641 31.5879L89.7148 31.5371ZM88.6992 41.1855C88.5469 41.1855 88.4707 41.1094 88.4707 40.9824C88.4453 40.9824 88.4453 40.957 88.3945 40.9316L88.4453 40.8301C88.4707 40.4492 88.623 40.0684 88.9277 39.6875C89.0547 39.2559 89.1309 38.8242 89.1309 38.4434C89.1309 37.9102 89.0293 37.3008 88.8262 36.5898C88.5723 35.9043 88.4453 35.0918 88.4453 34.1523C88.4453 32.959 89.1309 31.7656 90.502 30.623C90.6035 30.5469 90.7051 30.4961 90.8066 30.4961C91.0859 30.4961 91.2383 30.623 91.2383 30.877C91.2383 30.9531 91.2129 31.0293 91.1367 31.1055C90.6543 31.4863 90.2734 31.918 89.9941 32.3496C89.7148 32.7812 89.5625 33.3398 89.5625 33.9746C89.5625 34.7363 89.6387 35.4219 89.791 36.0059C89.918 36.5391 89.9941 37.0723 89.9941 37.6055C89.9941 38.0879 89.9688 38.4688 89.8926 38.748C90.7812 38.0117 92.3301 37.123 94.5137 36.1328L97.916 34.584C100.354 33.5684 102.486 32.5527 104.34 31.5625L104.416 31.5117C104.619 31.5117 104.721 31.6133 104.721 31.8418L104.594 31.9941C102.537 33.1113 100.328 34.1777 97.9668 35.168C96.875 35.6504 95.8086 36.1328 94.7168 36.6406C92.2285 37.7578 90.5273 38.7734 89.6387 39.6621C89.5117 40.0938 89.2578 40.5508 88.9277 41.0586C88.877 41.1348 88.8008 41.1855 88.6992 41.1855ZM122.139 46.2383C120.082 46.2129 118.279 45.4258 116.781 43.9023C115.283 42.3789 114.521 40.2207 114.521 37.4531C114.521 33.5684 115.461 29.5312 117.365 25.3418C119.244 21.1777 121.758 17.5977 124.881 14.5762C127.953 11.6562 131.254 10.209 134.783 10.209C135.773 10.209 136.535 10.4121 137.068 10.793C137.576 11.1992 137.932 11.6816 138.109 12.2402C138.287 12.7988 138.389 13.332 138.389 13.8398L138.338 14.6777C138.211 14.957 138.059 15.084 137.881 15.084C137.627 15.084 137.5 14.957 137.475 14.6777C137.475 14.5 137.525 14.373 137.602 14.2715C137.627 14.1953 137.652 14.0684 137.703 13.916C137.754 13.7637 137.779 13.5605 137.805 13.3066C137.805 12.5195 137.475 11.8848 136.84 11.3516C136.434 10.9453 135.748 10.7422 134.783 10.7422C132.803 10.7422 130.873 11.3516 129.02 12.5703C127.166 13.7891 125.439 15.3887 123.84 17.3691C122.24 19.3496 120.844 21.5078 119.65 23.8691C118.457 26.2305 117.518 28.6172 116.832 30.9785C116.146 33.3652 115.791 35.5234 115.791 37.4531C115.791 39.916 116.375 41.8965 117.543 43.4199C118.686 44.9434 120.234 45.7051 122.139 45.7051C124.373 45.7051 126.43 44.9688 128.334 43.5215C131.686 40.8555 134.402 37.5293 136.51 33.5176L137.678 31.2324C137.729 31.1816 137.805 31.1562 137.881 31.1562C138.059 31.1562 138.16 31.2578 138.16 31.4355C136.586 34.4062 135.113 36.8691 133.717 38.7988C132.32 40.7539 130.619 42.4805 128.664 43.9785C126.684 45.4766 124.5 46.2383 122.139 46.2383ZM144.152 32.5781C144.229 32.3496 144.254 32.1465 144.254 31.9688C144.254 31.6387 144.152 31.4863 143.975 31.4863C143.898 31.4863 143.873 31.6133 143.848 31.8926C143.848 32.1973 143.949 32.4258 144.152 32.5781ZM142.121 34.9648C141.689 34.9648 141.309 34.8379 140.979 34.584C140.648 34.3301 140.471 33.9492 140.471 33.416C140.471 32.8574 140.648 32.2734 141.029 31.7148C141.385 31.1309 141.816 30.7754 142.248 30.623C142.629 30.623 142.832 30.8008 142.832 31.1562C142.832 31.2578 142.807 31.3594 142.73 31.4355C141.842 32.1719 141.385 32.8828 141.385 33.5938C141.385 33.7969 141.436 34 141.562 34.1777C141.664 34.3555 141.867 34.4316 142.121 34.4316C142.553 34.4316 142.883 34.3047 143.137 34.0762C143.391 33.8477 143.645 33.5684 143.873 33.1875C143.391 32.959 143.137 32.5273 143.137 31.8926C143.137 31.334 143.416 31.0293 144 30.9785C144.533 30.9785 144.787 31.3086 144.787 31.9434C144.787 32.2227 144.711 32.5273 144.584 32.832C145.092 33.0605 145.65 33.1875 146.311 33.1875C148.9 33.1113 151.363 32.8828 153.699 32.502C156.035 32.1211 157.635 31.791 158.473 31.5117C158.701 31.5117 158.803 31.6133 158.803 31.791V31.8164C158.803 31.9688 158.117 32.1973 156.771 32.4766C155.426 32.7559 153.826 33.0352 151.922 33.2891C150.043 33.543 148.164 33.6953 146.311 33.7207C145.625 33.7207 144.965 33.6191 144.355 33.3906C143.822 34.4316 143.086 34.9648 142.121 34.9648ZM174.494 21C174.697 21 174.875 21 175.002 20.9746H176.043L177.186 17.166C176.602 18.2324 175.713 19.502 174.494 21ZM168.604 52.4336C168.35 52.4336 168.223 52.2812 168.223 52.002C168.223 49.2598 169.111 44.7148 170.889 38.3926C172.666 32.0703 174.316 26.459 175.84 21.5586C175.256 21.5586 174.621 21.584 173.961 21.6348C171.447 24.5547 168.807 27.2715 166.039 29.8359C162.307 33.2891 159.869 35.9551 158.727 37.8594C158.727 38.748 158.371 39.7891 157.66 41.0332C157.609 41.1094 157.533 41.1602 157.432 41.1602C157.355 41.1602 157.305 41.1348 157.254 41.1094C157.203 41.084 157.178 41.0078 157.178 40.9062C157.178 40.043 157.406 39.2051 157.863 38.3672C157.863 38.0625 157.838 37.7578 157.787 37.4785C157.711 37.1992 157.635 36.8945 157.559 36.6152C157.457 36.2852 157.355 35.9043 157.279 35.5234C157.203 35.1426 157.152 34.6602 157.152 34.127C157.152 33.3398 157.381 32.6797 157.838 32.0957C158.676 31.0293 159.234 30.4961 159.539 30.4961C159.59 30.4961 159.641 30.4961 159.691 30.4961C159.717 30.5215 159.768 30.5469 159.818 30.5723C159.895 30.623 159.945 30.7246 159.945 30.877C159.945 30.9023 159.945 30.9531 159.92 30.9785C159.895 31.0293 159.869 31.0801 159.844 31.1055C159.361 31.4863 158.98 31.8926 158.701 32.3242C158.422 32.7812 158.27 33.3145 158.27 33.9492C158.27 34.8379 158.346 35.5996 158.523 36.2344C158.6 36.6152 158.625 36.8691 158.65 36.9961C159.768 35.2441 162.078 32.7559 165.607 29.5059L165.684 29.4297C168.35 26.9668 170.863 24.4023 173.199 21.6855C170.686 21.8887 168.248 22.5996 165.912 23.8438C165.887 23.8691 165.836 23.8945 165.785 23.8945C165.709 23.9199 165.658 23.9199 165.633 23.9199C165.328 23.9199 165.176 23.7422 165.15 23.4121C165.15 23.209 165.303 23.0312 165.582 22.9043C168.223 21.7617 170.965 21.1523 173.783 21.0254C175.484 19.0195 176.855 16.8867 177.896 14.6523C177.973 14.4238 178.1 14.2715 178.227 14.1953C178.354 14.1191 178.48 14.0938 178.658 14.0938C179.09 14.1191 179.293 14.373 179.293 14.8047C179.293 14.9316 179.268 15.084 179.217 15.2617C178.785 16.4043 178.125 18.334 177.186 21C180.055 21.127 183.229 21.5332 186.656 22.1934L186.834 22.3711C186.834 22.4727 186.809 22.5488 186.758 22.625C186.682 22.7012 186.631 22.7266 186.555 22.7266C183.127 22.0664 179.928 21.6855 176.957 21.5586C171.65 36.7168 168.984 46.873 168.984 52.0273C168.984 52.2812 168.857 52.4082 168.604 52.4336ZM197.219 31.5371C197.32 31.5371 197.396 31.5625 197.447 31.5879C197.498 31.6133 197.523 31.6387 197.549 31.6895C197.574 31.7148 197.574 31.7656 197.574 31.8418L197.447 31.9941C192.725 34.6094 188.84 35.9297 185.793 35.9297C184.727 35.9297 183.863 35.7266 183.254 35.2949C182.645 34.8887 182.289 34.3047 182.188 33.543C182.086 33.6445 181.807 33.8984 181.324 34.3555C180.334 35.2695 179.521 35.7266 178.887 35.7266C177.973 35.7266 177.49 35.1934 177.439 34.127C177.439 33.5684 177.643 32.959 178.049 32.2734C178.455 31.5879 178.988 31.0039 179.598 30.4961C180.232 29.9883 180.867 29.7344 181.553 29.7344C182.111 29.7344 182.492 29.8867 182.721 30.2168C182.949 30.5469 183.076 30.9277 183.076 31.334C183.076 31.4609 183.051 31.5117 182.975 31.5371C182.898 31.5625 182.822 31.5625 182.771 31.5625C182.746 31.5625 182.695 31.5625 182.67 31.5371C182.619 31.5371 182.594 31.5117 182.543 31.4609C182.518 31.4355 182.492 31.3848 182.492 31.3086C182.492 30.8516 182.213 30.623 181.654 30.5977C181.223 30.5977 180.74 30.8262 180.232 31.2832C179.75 31.7402 179.318 32.2734 178.988 32.8574C178.658 33.4668 178.48 33.9492 178.48 34.3555C178.48 34.8633 178.633 35.1426 178.938 35.1934C179.318 35.1934 179.775 34.9648 180.359 34.5078C180.918 34.0508 181.553 33.4668 182.238 32.7305C182.314 32.5781 182.467 32.502 182.67 32.502C183.051 32.502 183.229 32.6543 183.229 32.9844C183.229 34.584 184.092 35.3711 185.818 35.3711C188.713 35.3711 192.496 34.1016 197.168 31.5879L197.219 31.5371Z" fill="white"/>
</svg>
