<svg width="144" height="144" viewBox="0 0 144 144" fill="none" xmlns="http://www.w3.org/2000/svg">
<path d="M115.866 91.6168C115.087 96.0999 112.318 100.016 108.269 102.362C104.494 104.548 99.9708 105.2 95.1816 105.891C92.6159 106.261 89.9629 106.644 87.3711 107.283C80.5181 108.973 73.8805 112.27 67.4615 115.458C54.6155 121.839 43.5215 127.348 33.0608 120.099C25.3984 114.788 25.7522 104.962 26.6449 99.578C27.4722 94.5895 29.7089 89.9955 31.8719 85.5524C32.2456 84.7842 32.6119 84.0303 32.9683 83.2829C34.0404 83.7111 35.1807 84.0034 36.3693 84.1363C34.1675 91.4028 37.63 99.3037 44.8978 103.037L45.8923 103.548L46.9458 103.173C52.6913 101.127 57.9855 97.8437 62.6813 93.4133C65.7166 90.5496 68.3265 87.3815 70.4715 83.9962C71.1145 84.0931 71.7723 84.144 72.4419 84.144C79.1121 84.144 84.6358 79.1574 85.4905 72.717C88.2209 72.6169 91.121 72.6162 93.8671 72.7159C94.7213 79.1569 100.245 84.144 106.916 84.144C109.705 84.144 112.292 83.2699 114.423 81.7851C115.903 84.814 116.455 88.222 115.866 91.6168ZM37.8376 63.0551C42.2479 63.0551 45.8355 66.643 45.8355 71.053C45.8355 72.6371 45.3708 74.1142 44.5727 75.3581C43.2429 77.4314 40.9838 78.8527 38.3871 79.03C38.2054 79.0424 38.0224 79.0509 37.8376 79.0509C36.8549 79.0509 35.9134 78.8716 35.0429 78.5462C33.2821 77.8871 31.8148 76.6238 30.8919 75.0105C30.2238 73.8425 29.8397 72.4921 29.8397 71.053C29.8397 66.643 33.4276 63.0551 37.8376 63.0551ZM64.444 70.977C64.444 66.9702 67.4059 63.6431 71.2548 63.0678C71.6423 63.0096 72.0387 62.9791 72.4419 62.9791C75.0058 62.9791 77.2885 64.1939 78.7526 66.0759C79.1165 66.5435 79.4321 67.0508 79.6862 67.5926C80.1687 68.6212 80.4398 69.7677 80.4398 70.977C80.4398 71.6165 80.3623 72.238 80.2199 72.8343C79.4404 76.0973 76.6581 78.5911 73.2488 78.9344C72.9836 78.961 72.7143 78.9749 72.4419 78.9749C70.8452 78.9749 69.3575 78.5027 68.1074 77.6933C65.9053 76.2668 64.444 73.7901 64.444 70.977ZM97.8243 61.4667C96.111 63.106 94.8368 65.2006 94.2023 67.5559C91.2407 67.4447 88.1002 67.4447 85.1556 67.5559C84.4792 65.0455 83.0763 62.8308 81.1893 61.1485L89.4651 44.4143L97.8243 61.4667ZM62.1753 20.1691H116.733L103.847 58.1739C103.289 58.3081 102.744 58.4768 102.215 58.6797L89.4855 32.7122L76.7201 58.5247C76.1683 58.3347 75.5997 58.1817 75.0177 58.0656L62.1753 20.1691ZM114.914 70.977C114.914 71.779 114.794 72.5531 114.573 73.284C114.048 75.0229 112.946 76.5129 111.491 77.5317C110.193 78.4399 108.616 78.9749 106.916 78.9749C103.223 78.9749 100.108 76.4584 99.192 73.0504C99.0142 72.3887 98.9178 71.694 98.9178 70.977C98.9178 69.8838 99.1388 68.8414 99.5376 67.8916C99.7431 67.4021 99.9995 66.9394 100.294 66.5047C101.733 64.3805 104.162 62.9791 106.916 62.9791C107.168 62.9791 107.417 62.9923 107.664 63.0153C111.725 63.3937 114.914 66.8193 114.914 70.977ZM120.083 70.977C120.083 64.5487 115.451 59.1853 109.351 58.0393L123.944 15H54.9657L69.5806 58.1269C63.6919 59.4373 59.2749 64.6994 59.2749 70.977C59.2749 75.6907 61.7662 79.8315 65.4995 82.1581C63.7038 84.8336 61.5741 87.3512 59.134 89.6535C55.2637 93.3047 50.9521 96.0736 46.3038 97.8954C41.6219 94.9545 39.6426 89.4083 41.6981 84.5764L41.8592 84.1978C41.9599 83.9613 42.0607 83.7243 42.1613 83.4873C47.3038 81.6936 51.0046 76.799 51.0046 71.053C51.0046 63.7925 45.0979 57.886 37.8376 57.886C30.5773 57.886 24.6706 63.7925 24.6706 71.053C24.6706 74.7177 26.1769 78.0362 28.6012 80.4256C28.1618 81.362 27.6992 82.3144 27.2244 83.2896C25.0079 87.8423 22.4957 93.0023 21.5456 98.7323C19.6586 110.112 22.7024 119.209 30.1162 124.347C34.6152 127.465 39.1836 128.691 43.7813 128.691C52.4385 128.691 61.1957 124.342 69.761 120.087C75.9295 117.024 82.3082 113.855 88.6088 112.301C90.953 111.723 93.3654 111.375 95.9195 111.007C100.984 110.276 106.221 109.521 110.86 106.835C116.237 103.72 119.918 98.4956 120.959 92.5012C121.852 87.3551 120.777 82.2007 118.154 77.8297C119.377 75.8321 120.083 73.4856 120.083 70.977Z" fill="white"/>
</svg>
