<svg width="144" height="144" viewBox="0 0 144 144" fill="none" xmlns="http://www.w3.org/2000/svg">
<g clip-path="url(#clip0_30_67)">
<path d="M93.99 93.5885C98.1968 93.153 101.388 89.5264 101.243 85.1739C101.098 80.8218 97.4714 77.3399 93.1194 77.3399H92.8295C88.3318 77.4851 84.8504 81.2569 84.9955 85.7541C85.1407 87.9304 86.0109 89.8163 87.3165 91.1219C82.3842 100.842 74.8406 107.951 63.5252 113.899C55.8365 117.961 47.8578 119.412 39.8792 118.396C33.3509 117.526 28.2734 114.625 25.0814 109.837C20.4395 102.728 20.0044 95.0389 23.9214 87.3501C26.6779 81.8371 31.0295 77.775 33.7859 75.7439C33.2057 73.858 32.3351 70.6665 31.9 68.3455C10.8648 83.5783 13.0411 104.179 19.4242 113.899C24.2113 121.153 33.9311 125.65 44.6663 125.65C47.5675 125.65 50.4687 125.36 53.3703 124.635C71.9394 121.008 86.0113 109.982 93.99 93.5885ZM119.522 75.5992C108.497 62.6874 92.2492 55.5788 73.6802 55.5788H71.3592C70.0535 52.9675 67.297 51.2264 64.2507 51.2264H63.9603C59.4636 51.3715 55.9821 55.1433 56.1268 59.641C56.272 63.993 59.8986 67.4749 64.2507 67.4749H64.5406C67.7321 67.3298 70.4886 65.2987 71.6491 62.5422H74.2604C85.2859 62.5422 95.7307 65.7338 105.161 71.9721C112.414 76.7597 117.636 82.9981 120.538 90.5417C123.004 96.6349 122.859 102.583 120.247 107.661C116.186 115.35 109.367 119.557 100.373 119.557C94.5702 119.557 89.0577 117.816 86.156 116.51C84.5605 117.961 81.6588 120.282 79.6277 121.733C85.8661 124.634 92.2492 126.23 98.342 126.23C112.269 126.23 122.569 118.541 126.486 110.852C130.693 102.438 130.402 87.9304 119.522 75.5992ZM45.8267 96.0542C45.9719 100.407 49.5985 103.888 53.9506 103.888H54.2409C58.7381 103.743 62.2196 99.9712 62.0744 95.474C61.9297 91.1215 58.3026 87.64 53.9506 87.64H53.6607C53.3703 87.64 52.9348 87.64 52.6454 87.7847C46.6973 77.9197 44.2312 67.1846 45.1018 55.5784C45.6816 46.8739 48.5832 39.3298 53.6607 33.0915C57.8676 27.7237 65.9914 25.1124 71.5044 24.9676C86.8814 24.6773 93.4093 43.8271 93.8448 51.5163C95.7307 51.9513 98.9222 52.9671 101.098 53.6925C99.3573 30.1907 84.8504 18.0043 70.9241 18.0043C57.8676 18.0043 45.8268 27.4342 41.0392 41.3614C34.3662 59.9309 38.7182 77.775 46.8421 91.8473C46.1171 92.8626 45.6816 94.4582 45.8267 96.0542Z" fill="white"/>
</g>
<defs>
<clipPath id="clip0_30_67">
<rect width="114" height="108.665" fill="white" transform="translate(15 18)"/>
</clipPath>
</defs>
</svg>
